<svg xmlns="http://www.w3.org/2000/svg" version="1.1" xmlns:xlink="http://www.w3.org/1999/xlink" xmlns:svgjs="http://svgjs.dev/svgjs" width="1920" height="1080" preserveAspectRatio="none" viewBox="0 0 1920 1080"><g mask="url(&quot;#SvgjsMask1084&quot;)" fill="none"><rect width="1920" height="1080" x="0" y="0" fill="rgba(25, 25, 25, 1)"></rect><path d="M375.1151919987633 86.0957417084092L99.40225617915496-54.38701584650535-41.08050137575958 221.325919973103 234.63243444384875 361.80867752801754z" fill="rgba(206, 203, 203, 0.49)" class="triangle-float2"></path><path d="M1490.1611756367024 156.17434895246697L1177.3214371839963 89.67820979321081 1423.6650364774462 469.01408740517314z" fill="rgba(206, 203, 203, 0.49)" class="triangle-float3"></path><path d="M1742.3111011337232 534.4907829424774L1891.9273608618505 408.9478345864817 1628.8048084637933 247.29491917228876z" fill="rgba(206, 203, 203, 0.49)" class="triangle-float2"></path><path d="M226.55 147.23 a219.29 219.29 0 1 0 438.58 0 a219.29 219.29 0 1 0 -438.58 0z" fill="rgba(206, 203, 203, 0.49)" class="triangle-float1"></path><path d="M1535.17198905228 340.4662308659027L1441.1816280383193 517.2363903123144 1753.3320477149173 569.8368521100493z" fill="rgba(206, 203, 203, 0.49)" class="triangle-float2"></path><path d="M334.37541627118935 465.83783441251876L529.4933332373276 533.0223210715201 596.677819896329 337.9044041053819 401.55990293019073 270.71991744638046z" fill="rgba(206, 203, 203, 0.49)" class="triangle-float1"></path><path d="M913.1262766666625 631.3962950210041L735.7291159432752 395.9823115128694 500.3151324351405 573.3794722362567 677.7122931585278 808.7934557443914z" fill="rgba(206, 203, 203, 0.49)" class="triangle-float1"></path><path d="M1834.878440365226 948.6371108916223L2110.212524458513 741.5691025929132 1835.0941993981985 619.0785324220229z" fill="rgba(206, 203, 203, 0.49)" class="triangle-float3"></path><path d="M1205.6592634537278 1032.8576134886675L1034.9503728867694 868.0059541083867 1040.807604073447 1203.566504055626z" fill="rgba(206, 203, 203, 0.49)" class="triangle-float1"></path><path d="M1670.5221413863892 592.5402357611715L1826.7179036005446 498.68835338769236 1732.8660212270654 342.4925911735369 1576.67025901291 436.34447354701604z" fill="rgba(206, 203, 203, 0.49)" class="triangle-float3"></path><path d="M245.83883196442127 268.84559689289625L112.99977278699751 416.3783184734788 260.53249436758006 549.2173776509026 393.37155354500385 401.68465607032z" fill="rgba(206, 203, 203, 0.49)" class="triangle-float3"></path></g><defs><mask id="SvgjsMask1084"><rect width="1920" height="1080" fill="#ffffff"></rect></mask><style>
                @keyframes float1 {
                    0%{transform: translate(0, 0)}
                    50%{transform: translate(-10px, 0)}
                    100%{transform: translate(0, 0)}
                }

                .triangle-float1 {
                    animation: float1 5s infinite;
                }

                @keyframes float2 {
                    0%{transform: translate(0, 0)}
                    50%{transform: translate(-5px, -5px)}
                    100%{transform: translate(0, 0)}
                }

                .triangle-float2 {
                    animation: float2 4s infinite;
                }

                @keyframes float3 {
                    0%{transform: translate(0, 0)}
                    50%{transform: translate(0, -10px)}
                    100%{transform: translate(0, 0)}
                }

                .triangle-float3 {
                    animation: float3 6s infinite;
                }
            </style></defs></svg>