<svg xmlns="http://www.w3.org/2000/svg" version="1.1" xmlns:xlink="http://www.w3.org/1999/xlink" xmlns:svgjs="http://svgjs.dev/svgjs" width="1920" height="1080" preserveAspectRatio="none" viewBox="0 0 1920 1080"><g mask="url(&quot;#SvgjsMask1031&quot;)" fill="none"><rect width="1920" height="1080" x="0" y="0" fill="rgba(145, 146, 146, 1)"></rect><path d="M2016 1080L0 1080 L0 631.31Q85.37 556.68, 160 642.05Q225.63 611.68, 256 677.31Q349.53 610.84, 416 704.37Q460.65 589.02, 576 633.68Q672.85 570.53, 736 667.38Q755.75 591.13, 832 610.89Q851.57 534.46, 928 554.04Q1026.78 492.82, 1088 591.59Q1122.56 530.14, 1184 564.7Q1256.77 541.47, 1280 614.24Q1409.5 583.74, 1440 713.24Q1474.96 652.2, 1536 687.17Q1555.75 610.92, 1632 630.68Q1657.13 559.8, 1728 584.93Q1761.83 522.76, 1824 556.59Q1900.01 536.6, 1920 612.61Q2003.56 600.17, 2016 683.73z" fill="rgba(69, 69, 69, 1)"></path><path d="M2016 1080L0 1080 L0 754.81Q95.43 690.24, 160 785.68Q279.06 744.74, 320 863.81Q347.53 795.34, 416 822.86Q430.89 741.75, 512 756.64Q554.76 639.4, 672 682.17Q777.34 627.5, 832 732.84Q925.38 666.22, 992 759.6Q1042.84 650.43, 1152 701.27Q1247.09 636.36, 1312 731.44Q1390.18 713.62, 1408 791.8Q1479.83 767.63, 1504 839.45Q1541.79 717.24, 1664 755.03Q1723.87 718.9, 1760 778.77Q1827.13 749.9, 1856 817.04Q1877.48 678.52, 2016 700.01z" fill="rgba(45, 45, 45, 1)"></path><path d="M2016 1080L0 1080 L0 872.54Q120.94 833.48, 160 954.42Q189.55 887.97, 256 917.52Q370.79 872.31, 416 987.09Q430.78 841.88, 576 856.66Q641.35 762.01, 736 827.36Q847.11 778.47, 896 889.57Q996.97 894.54, 992 995.51Q986.81 830.32, 1152 825.12Q1193.82 770.94, 1248 812.77Q1339.62 808.38, 1344 900Q1446.14 842.14, 1504 944.28Q1603.03 883.31, 1664 982.34Q1749.75 908.1, 1824 993.85Q1830.09 903.94, 1920 910.03Q1940.68 834.71, 2016 855.4z" fill="rgba(22, 22, 22, 1)"></path><path d="M2048 1080L0 1080 L0 973.23Q74.86 888.09, 160 962.95Q261.78 904.74, 320 1006.52Q376.27 966.79, 416 1023.06Q465.59 912.65, 576 962.24Q643.77 934.01, 672 1001.79Q756.12 989.9, 768 1074.02Q796.49 1006.51, 864 1035Q917.98 928.98, 1024 982.95Q1152.38 951.34, 1184 1079.72Q1237.66 1037.38, 1280 1091.04Q1299.14 1014.18, 1376 1033.32Q1401.24 962.56, 1472 987.8Q1567.72 923.52, 1632 1019.24Q1740.08 967.32, 1792 1075.39Q1824.01 1011.4, 1888 1043.41Q1920.69 916.1, 2048 948.79z" fill="rgba(206, 206, 206, 1)"></path></g><defs><mask id="SvgjsMask1031"><rect width="1920" height="1080" fill="#ffffff"></rect></mask></defs></svg>